<svg xmlns="http://www.w3.org/2000/svg" viewBox="0 0 1920 1080"><defs><style>.a{fill:#152947;}.b{fill:#10233f;}.c{fill:#3743e2;}.d{fill:#3894e0;}</style></defs><title>Untitled-12</title><rect class="a" x="-13" y="-11" width="1950" height="1106"/><path class="b" d="M173.92-159.13C215-184,271-191.77,314.57-189.94c84.64,3.54,142.78,34.12,184.48,70.58C530.8-91.6,557.75-58.73,616.78-50,709.1-36.34,849.84-86.51,936-67.12c82.34,18.54,76,91.3,138.3,124.51,14.71,7.85,34.43,13.45,59.39,10.85C1181.88,63.22,1233.26,30,1281,26c26.07-2.18,45,4.93,66.35,8.83,44.16,8.07,103.31,1.84,158.93-16.75,39.7-13.27,84.43-33.54,116.93-28.72,20.75,3.08,28.31,15.76,35.94,27.15,14.36,21.42,36,41.77,77,45.44,85.17,7.6,211.82-58.57,290.35-44.21-18.76,33.17-89.24,56-144.67,65.21-95,15.86-185.81,16-258.9.29-34-7.3-71.11-17.6-115.5-3.8-50.25,15.62-79.05,52.75-125.28,75.28C1286.92,201.17,1188,160,1084.6,193c-42.19,13.48-80.14,38.11-122.7,48C907.6,253.7,866.63,238,839.05,219.46s-52.23-41.11-99.73-43.67c-44.89-2.41-99.54,13.71-150.8,27.68C486.74,231.2,381.24,252.6,290.39,250,198.6,247.35,129.56,220.6,65.74,192.6,35.46,179.32,5.18,165.19-9.14,143.45c-17-25.82-9.92-59.8-2.68-92.72,6.88-31.29,14.15-63.36,39.25-96.1C58-85.2,112.45-122.53,170.55-155"/><path class="b" d="M1813.6,1162C1771,1186.1,1714,1195.44,1670,1195.64c-85.46.38-143-24.69-183.61-55.75-30.95-23.66-56.81-52.12-116.15-57.49-92.8-8.39-237.27,42.72-323.56,28.9-82.5-13.22-73-79-134.62-106.27-14.55-6.44-34.26-10.65-59.61-7.26-49,6.56-102.37,38.62-150.85,44.24-26.46,3.07-45.33-2.54-66.74-5.15-44.32-5.4-104.42,2.71-161.46,21.79-40.71,13.62-86.81,33.77-119.48,30.8-20.86-1.9-28-13-35.21-22.93-13.62-18.68-34.6-36.09-76-37.66-85.83-3.25-216.73,61.69-295.54,52.07,20.37-30.66,92.63-54.15,149.08-64.83,96.73-18.3,188.62-22.23,261.88-11.2,34.13,5.14,71.18,12.84,116.66-1.46,51.49-16.19,82.19-50.84,129.89-73.07,98.32-45.83,196.67-12.95,302.61-47.05,43.24-13.92,82.67-37.7,126.14-48.42,55.45-13.67,96.22-1.25,123.34,14.27s51.09,34.81,99,35.1c45.3.28,101.26-16.55,153.7-31.29,104.12-29.27,211.73-53,303.52-54.48,92.72-1.5,161.42,19.67,224.79,42.18,30.07,10.68,60.1,22.13,73.67,41.1,16.11,22.53,7.51,53.43-1.21,83.37-8.28,28.47-17,57.65-43.76,88.19-32.58,37.15-89.25,73.07-149.38,104.73"/><polygon class="c" points="632 -10.3 624.26 13.62 606.68 17.84 623.56 27.68 632 50.89 632 -10.3"/><polygon class="c" points="632 -11 639.74 12.91 657.32 17.13 640.44 26.98 632 50.19 632 -11"/><polygon class="c" points="141 874.7 133.26 898.62 115.68 902.84 132.56 912.68 141 935.89 141 874.7"/><polygon class="c" points="141 874 148.74 897.91 166.32 902.13 149.44 911.98 141 935.19 141 874"/><polygon class="c" points="527 936.7 519.26 960.62 501.68 964.84 518.56 974.68 527 997.89 527 936.7"/><polygon class="c" points="527 936 534.74 959.91 552.32 964.13 535.44 973.98 527 997.19 527 936"/><polygon class="c" points="483 500.7 475.26 524.62 457.68 528.84 474.56 538.68 483 561.89 483 500.7"/><polygon class="c" points="483 500 490.74 523.91 508.32 528.13 491.44 537.98 483 561.19 483 500"/><polygon class="c" points="1698 438.7 1690.26 462.62 1672.68 466.83 1689.56 476.68 1698 499.89 1698 438.7"/><polygon class="c" points="1698 438 1705.74 461.91 1723.32 466.13 1706.44 475.98 1698 499.19 1698 438"/><polygon class="c" points="962 321.7 954.26 345.62 936.68 349.83 953.56 359.68 962 382.89 962 321.7"/><polygon class="c" points="962 321 969.74 344.91 987.32 349.13 970.44 358.98 962 382.19 962 321"/><polygon class="c" points="947 844.7 939.26 868.62 921.68 872.84 938.56 882.68 947 905.89 947 844.7"/><polygon class="c" points="947 844 954.74 867.91 972.32 872.13 955.44 881.98 947 905.19 947 844"/><polygon class="c" points="1842 20.7 1834.26 44.62 1816.68 48.84 1833.56 58.68 1842 81.89 1842 20.7"/><polygon class="c" points="1842 20 1849.74 43.91 1867.32 48.13 1850.44 57.98 1842 81.19 1842 20"/><polygon class="c" points="1389 155.7 1381.26 179.62 1363.68 183.84 1380.56 193.68 1389 216.89 1389 155.7"/><polygon class="c" points="1389 155 1396.74 178.91 1414.32 183.13 1397.44 192.98 1389 216.19 1389 155"/><polygon class="c" points="116 135.7 108.26 159.62 90.68 163.84 107.56 173.68 116 196.89 116 135.7"/><polygon class="c" points="116 135 123.74 158.91 141.32 163.13 124.44 172.98 116 196.19 116 135"/><polygon class="c" points="1855 783.7 1847.26 807.62 1829.68 811.84 1846.56 821.68 1855 844.89 1855 783.7"/><polygon class="c" points="1855 783 1862.74 806.91 1880.32 811.13 1863.44 820.98 1855 844.19 1855 783"/><polygon class="c" points="1440 711.7 1432.26 735.62 1414.68 739.84 1431.56 749.68 1440 772.89 1440 711.7"/><polygon class="c" points="1440 711 1447.74 734.91 1465.32 739.13 1448.44 748.98 1440 772.19 1440 711"/><polygon class="c" points="25 511.7 17.26 535.62 -0.32 539.84 16.56 549.68 25 572.89 25 511.7"/><polygon class="c" points="25 511 32.74 534.91 50.32 539.13 33.44 548.98 25 572.19 25 511"/><ellipse class="d" cx="1559.27" cy="333.26" rx="217.3" ry="4.91" transform="translate(10.59 712.69) rotate(-25.83)"/><ellipse class="d" cx="336.27" cy="352.26" rx="217.3" ry="4.91" transform="translate(-119.89 181.71) rotate(-25.83)"/><ellipse class="d" cx="779.27" cy="764.26" rx="217.3" ry="4.91" transform="translate(-255.14 415.9) rotate(-25.83)"/></svg>